# xmcd
# Track frame offsets:
# 150
# 14386
# 25899
# 38881
# 51796
# 63857
# 74057
# 84884
# 96001
# 106720
# 117674
# 130380
# 141572
# 152892
# 165053
# 175286
# 186662
# 198370
# 208697
# 218434
#
# Disc length: 3064 seconds
# Revision: 0
# Processed by: cddbd v1.5.2PL0 Copyright (c) Steve Scherf et al.
# Submitted via: VisiTrax 2.11.3.279 - For more info visit www.synapsa.com
#
DISCID=1d0bf614
DTITLE=Various (1930s-1950s) Rock n Roll and Blues and Jazz Artists - Roots Of Ro
DTITLE=ck and Roll: Rough And Rowdy: CD5 of 10: *ReMastered Tracks
DYEAR=2014
DGENRE=Rock n Roll
TTITLE0=Rosco Gordon - Booted*
TTITLE1=George Green - Brand New Rockin' Chair*
TTITLE2=Harold Burrage - Way Down Boogie*
TTITLE3=Marvin and Johnny - Tick Tock*
TTITLE4=Hank Ballard and The Midnighters - Henry's Got Flat Feet*
TTITLE5=Jackie Brenston - Much Later*
TTITLE6=Nappy Brown - Don't Be Angry*
TTITLE7=Bobby Day - Little Bitty Pretty One*
TTITLE8=Mercy Dee - Romp And Stomp Blues*
TTITLE9=Rene Hall - Twitchy*
TTITLE10=Big Joe Turner - Flip, Flop And Fly*
TTITLE11=Big John Greer - Bottle It Up And Go*
TTITLE12=Smiley Lewis - Bumpity Bump*
TTITLE13=Anita Tucker - Hop, Skip And Jump*
TTITLE14=Slim Saunders - Let's Have Some Fun Honey*
TTITLE15=Gene and Eunice - Bom Bom Lulu*
TTITLE16=Rocking Brothers The - Play Boy Hop*
TTITLE17=Junior Gordon - Blow Wind Blow*
TTITLE18=Marvin and Johnny - Wine Woogie*
TTITLE19=Johnny Otis Orchestra - Rock Me Baby*
EXTD=Compilation and ReMastering: Documents-The Intense Media: 2014
EXTT0=
EXTT1=
EXTT2=
EXTT3=
EXTT4=
EXTT5=
EXTT6=
EXTT7=
EXTT8=
EXTT9=
EXTT10=
EXTT11=
EXTT12=
EXTT13=
EXTT14=
EXTT15=
EXTT16=
EXTT17=
EXTT18=
EXTT19=
PLAYORDER=
